<?xml version="1.0" encoding="UTF-8" standalone="no"?>
<!-- Created with Inkscape (http://www.inkscape.org/) -->

<svg
   xmlns:dc="http://purl.org/dc/elements/1.1/"
   xmlns:cc="http://creativecommons.org/ns#"
   xmlns:rdf="http://www.w3.org/1999/02/22-rdf-syntax-ns#"
   xmlns:svg="http://www.w3.org/2000/svg"
   xmlns="http://www.w3.org/2000/svg"
   xmlns:sodipodi="http://sodipodi.sourceforge.net/DTD/sodipodi-0.dtd"
   xmlns:inkscape="http://www.inkscape.org/namespaces/inkscape"
   width="230"
   height="152"
   id="svg3052"
   version="1.1"
   inkscape:version="0.48.4 r9939"
   sodipodi:docname="New document 1">
  <defs
     id="defs3054" />
  <sodipodi:namedview
     id="base"
     pagecolor="#ffffff"
     bordercolor="#666666"
     borderopacity="1.0"
     inkscape:pageopacity="0.0"
     inkscape:pageshadow="2"
     inkscape:zoom="1.4"
     inkscape:cx="51.665014"
     inkscape:cy="103.97946"
     inkscape:document-units="px"
     inkscape:current-layer="layer1"
     showgrid="false"
     inkscape:window-width="1920"
     inkscape:window-height="1022"
     inkscape:window-x="0"
     inkscape:window-y="33"
     inkscape:window-maximized="1" />
  <metadata
     id="metadata3057">
    <rdf:RDF>
      <cc:Work
         rdf:about="">
        <dc:format>image/svg+xml</dc:format>
        <dc:type
           rdf:resource="http://purl.org/dc/dcmitype/StillImage" />
        <dc:title></dc:title>
      </cc:Work>
    </rdf:RDF>
  </metadata>
  <g
     inkscape:label="Layer 1"
     inkscape:groupmode="layer"
     id="layer1"
     transform="translate(0,-900.36218)">
    <g
       id="g3111"
       transform="matrix(0.43517613,0,0,0.43517613,53.572727,547.28265)">
      <g
         inkscape:export-ydpi="120"
         inkscape:export-xdpi="120"
         inkscape:export-filename="/home/eb-198/Descargas/adrenalink.png"
         id="g3360"
         transform="matrix(1.25,0,0,-1.25,-350.35689,1340.9334)">
        <g
           id="g164"
           transform="translate(253.2599,240.7209)">
          <path
             d="M 0,0 -1.245,10.018 -7.768,0 0,0 z m -3.087,21.38 9.461,0 5.428,-35.135 -10.159,0 -0.846,6.23 -13.446,0 -4.182,-6.23 -10.508,0 24.252,35.135 z"
             style="fill:#1d1d1b;fill-opacity:1;fill-rule:nonzero;stroke:none"
             id="path166"
             inkscape:connector-curvature="0" />
        </g>
        <g
           id="g168"
           transform="translate(281.2455,235.5384)">
          <path
             d="m 0,0 c 2.024,0 3.901,0.298 5.627,0.897 1.725,0.598 3.17,1.478 4.332,2.641 0.929,0.93 1.66,2.026 2.191,3.29 0.531,1.262 0.797,2.591 0.797,3.986 0,1.063 -0.15,1.985 -0.448,2.767 -0.299,0.779 -0.731,1.452 -1.295,2.018 -0.665,0.664 -1.543,1.187 -2.639,1.57 -1.096,0.382 -2.49,0.573 -4.183,0.573 l -2.789,0 L -3.187,0 0,0 z m -5.826,26.314 11.254,0 c 3.386,0 6.174,-0.416 8.366,-1.246 2.191,-0.831 3.949,-1.911 5.278,-3.24 2.523,-2.525 3.785,-5.93 3.785,-10.216 0,-2.625 -0.482,-5.101 -1.445,-7.426 C 20.449,1.86 19.022,-0.25 17.13,-2.143 15.039,-4.236 12.482,-5.831 9.461,-6.928 6.44,-8.024 2.904,-8.572 -1.146,-8.572 l -14.042,0 9.362,34.886 z"
             style="fill:#1d1d1b;fill-opacity:1;fill-rule:nonzero;stroke:none"
             id="path170"
             inkscape:connector-curvature="0" />
        </g>
        <g
           id="g172"
           transform="translate(322.4765,245.1069)">
          <path
             d="m 0,0 c 2.191,0 3.934,0.435 5.229,1.303 1.294,0.87 1.942,2.055 1.942,3.56 0,0.902 -0.299,1.688 -0.897,2.357 C 5.478,8.021 4.049,8.423 1.992,8.423 l -5.229,0 L -5.528,0 0,0 z m -10.731,16.745 13.147,0 c 2.921,0 5.36,-0.315 7.318,-0.946 1.958,-0.632 3.514,-1.529 4.67,-2.692 0.925,-0.931 1.602,-2.002 2.032,-3.214 0.43,-1.213 0.644,-2.517 0.644,-3.913 0,-2.923 -0.843,-5.474 -2.527,-7.649 -1.685,-2.177 -4.319,-3.747 -7.904,-4.71 l 5.378,-11.762 -10.657,0 -4.631,10.566 -4.282,0 -2.839,-10.566 -9.71,0 9.361,34.886 z"
             style="fill:#1d1d1b;fill-opacity:1;fill-rule:nonzero;stroke:none"
             id="path174"
             inkscape:connector-curvature="0" />
        </g>
        <g
           id="g176"
           transform="translate(346.0796,261.8522)">
          <path
             d="m 0,0 27.936,0 -2.241,-8.223 -18.325,0 -1.444,-5.283 16.631,0 -2.041,-7.625 -16.632,0 -1.494,-5.532 18.624,0 -2.191,-8.223 -28.185,0 L 0,0 z"
             style="fill:#1d1d1b;fill-opacity:1;fill-rule:nonzero;stroke:none"
             id="path178"
             inkscape:connector-curvature="0" />
        </g>
        <g
           id="g180"
           transform="translate(377.8496,261.8522)">
          <path
             d="M 0,0 9.013,0 18.026,-19.387 23.254,0 l 9.612,0 -9.362,-34.886 -8.466,0 -9.412,20.084 -5.378,-20.084 -9.61,0 L 0,0 z"
             style="fill:#1d1d1b;fill-opacity:1;fill-rule:nonzero;stroke:none"
             id="path182"
             inkscape:connector-curvature="0" />
        </g>
        <g
           id="g184"
           transform="translate(430.0859,240.7209)">
          <path
             d="M 0,0 -1.245,10.018 -7.768,0 0,0 z m -3.087,21.38 9.461,0 5.428,-35.135 -10.159,0 -0.846,6.23 -13.445,0 -4.183,-6.23 -10.508,0 24.252,35.135 z"
             style="fill:#ff8859;fill-opacity:1;fill-rule:nonzero;stroke:none"
             id="path186"
             inkscape:connector-curvature="0" />
        </g>
        <g
           id="g188"
           transform="translate(452.2454,261.8522)">
          <path
             d="m 0,0 9.71,0 -7.071,-26.414 16.632,0 -2.291,-8.472 -26.342,0 L 0,0 z"
             style="fill:#1d1d1b;fill-opacity:1;fill-rule:nonzero;stroke:none"
             id="path190"
             inkscape:connector-curvature="0" />
        </g>
        <g
           id="g192"
           transform="translate(481.6745,261.8522)">
          <path
             d="m 0,0 9.661,0 -9.362,-34.886 -9.661,0 L 0,0 z"
             style="fill:#1d1d1b;fill-opacity:1;fill-rule:nonzero;stroke:none"
             id="path194"
             inkscape:connector-curvature="0" />
        </g>
        <g
           id="g196"
           transform="translate(496.0663,261.8522)">
          <path
             d="M 0,0 9.013,0 18.026,-19.387 23.254,0 l 9.612,0 -9.362,-34.886 -8.466,0 -9.412,20.084 -5.378,-20.084 -9.61,0 L 0,0 z"
             style="fill:#1d1d1b;fill-opacity:1;fill-rule:nonzero;stroke:none"
             id="path198"
             inkscape:connector-curvature="0" />
        </g>
        <g
           id="g200"
           transform="translate(533.4134,261.8522)">
          <path
             d="M 0,0 9.71,0 5.926,-13.954 20.317,0 l 12.3,0 -16.433,-15.3 7.768,-19.586 -10.458,0 -5.029,13.456 -6.025,-5.532 -2.091,-7.924 -9.711,0 L 0,0 z"
             style="fill:#1d1d1b;fill-opacity:1;fill-rule:nonzero;stroke:none"
             id="path202"
             inkscape:connector-curvature="0" />
        </g>
        <g
           id="g204"
           transform="translate(565.8877,276.2194)">
          <path
             d="m 0,0 0.002,0.006 c 0,0 -0.011,0.003 -0.021,0.007 -0.024,0.008 -0.08,0.028 -0.165,0.057 -0.639,0.221 -2.373,0.81 -6.213,2.158 -47.714,16.748 -82.029,31.646 -110.965,44.365 -3.807,1.674 -19.812,9.679 -22.446,9.679 -2.353,0 -12.403,-4.884 -16.566,-6.72 -4.139,-1.838 -29.743,-13.012 -38.747,-16.408 -10.774,-4.063 -36.519,-14.188 -55.541,-19.941 -9.55,-2.889 -19.362,-5.185 -29.149,-6.673 -4.878,-0.724 -9.788,-1.221 -14.455,-1.144 -2.282,0.047 -9.965,-0.046 -9.965,3.266 0,4.463 10.941,9.746 15.209,12.087 4.305,2.33 8.813,4.43 13.389,6.384 4.586,1.937 9.217,3.807 13.903,5.517 9.37,3.42 17.623,6.096 28.283,9.289 10.659,3.193 73.824,18.125 82.488,20.421 2.173,0.59 4.317,1.182 6.527,1.941 0.557,0.194 5.09,1.289 5.09,4.459 0,3.386 -4.439,3.61 -5.043,3.684 -2.354,0.255 -10.923,0.388 -13.018,0.38 -8.373,-0.047 -16.419,-0.24 -24.15,-0.407 -15.451,-0.369 -29.611,-0.621 -42.185,-1.092 -12.565,-0.464 -23.514,-1.048 -32.518,-1.74 -9.005,-0.675 -16.064,-1.433 -20.865,-2.062 -3.4,-0.436 -6.702,-1.02 -6.702,-1.02 l -0.648,-0.125 c -0.045,-0.01 -0.309,-0.145 -0.26,-0.456 0.048,-0.311 0.352,-0.351 0.411,-0.344 0.058,0.007 3.433,0.503 7.322,0.848 4.797,0.438 11.854,0.917 20.851,1.238 8.996,0.321 19.927,0.56 32.468,0.572 12.533,0.011 26.704,-0.182 42.157,-0.287 7.611,-0.072 23.941,-0.34 24.06,-0.344 0.015,0 0.03,0 0.044,-0.001 0.002,0 0.004,0 0.006,0 0.006,0 0.012,0 0.019,-10e-4 0.212,-0.023 0.202,-0.242 0.202,-0.242 0,0 -0.015,-0.158 -0.164,-0.197 -0.154,-0.032 -14.448,-2.925 -21.66,-4.322 -9.147,-1.739 -18.491,-3.514 -27.994,-5.32 -19.062,-3.772 -38.702,-8.306 -58.243,-14.887 -9.773,-3.294 -19.506,-7.093 -29.016,-12.055 -2.379,-1.244 -4.736,-2.582 -7.054,-4.086 -2.322,-1.496 -14.529,-8.201 -14.529,-19.267 0,-8.993 11.115,-11.557 12.662,-11.882 4.648,-0.977 9.421,-0.988 15.084,-0.988 31.058,0 48.9,9.48 70.156,16.355 3.7,1.197 11.876,-2.177 16.033,0.792 4.157,2.969 33.814,25.28 34.442,22.159 0.523,-2.603 7.634,1.346 14.648,6.741 5.839,4.491 12.224,8.165 13.126,8.103 0.903,-0.062 35.567,-17.407 40.12,-20.574 4.552,-3.167 7.324,-0.594 9.105,-0.989 1.781,-0.396 29.028,-11.718 31.077,-12.075 1.17,-0.203 4.354,0.792 22.565,-5.938 18.211,-6.73 36.595,-9.693 36.595,-9.693 l 0,0 c 0.001,0 0.002,0 0.002,0 0.236,0 0.427,0.191 0.427,0.426 C 0.191,-0.2 0.112,-0.077 0,0"
             style="fill:#ff8859;fill-opacity:1;fill-rule:nonzero;stroke:none"
             id="path206"
             inkscape:connector-curvature="0" />
        </g>
      </g>
    </g>
  </g>
</svg>
